<?xml version="1.0" encoding="utf-8"?>
<!-- Generator: Adobe Illustrator 22.0.0, SVG Export Plug-In . SVG Version: 6.00 Build 0)  -->
<svg version="1.1" id="Layer_1" xmlns="http://www.w3.org/2000/svg" xmlns:xlink="http://www.w3.org/1999/xlink" x="0px" y="0px"
	 viewBox="0 0 398.1 264.3" style="enable-background:new 0 0 398.1 264.3;" xml:space="preserve">
<style type="text/css">
	.st0{fill:#5496E6;}
	.st1{font-family:'Arial-BoldMT';}
	.st2{font-size:15px;}
	.st3{fill:#FFFFFF;}
	.st4{fill:#83DBE8;}
	.st5{fill:#54BAE8;}
	.st6{fill:#90C9EA;}
	.st7{fill:#CFBEFC;}
	.st8{fill:#A983FB;}
	.st9{fill:#7B91FF;}
	.st10{fill:#80C3FF;}
	.st11{fill:#494089;}
</style>
<title>Asset3</title>
<g id="Layer_2_1_">
	<g id="OBJECTS">
		<text transform="matrix(1 0 0 1 118.8898 252.8067)" class="st0 st1 st2">THIS </text>
		<text transform="matrix(1 0 0 1 157.2198 252.8067)" class="st0 st1 st2">P</text>
		<text transform="matrix(1 0 0 1 166.1198 252.8067)" class="st0 st1 st2">AGE </text>
		<text transform="matrix(1 0 0 1 202.7898 252.8067)" class="st0 st1 st2">W</text>
		<text transform="matrix(1 0 0 1 216.1198 252.8067)" class="st0 st1 st2">AS LOST!</text>
		<path class="st0" d="M45.6,71.8C28,77.5,7.6,86.4,4.3,104.6c-2.1,11.9,4.8,24.3,15.2,30.4c5.1,3,11.3,5.1,14,10.4
			c4.1,8.2-3.3,17.5-11.1,22.3s-17.4,8.5-20.9,17c-2.3,5.6-1.4,12,0.9,17.6c8.5,20.4,33.4,29.4,55.5,28.3s43.1-9.7,64.7-14.1
			C197,201.2,275,235.8,349.3,220c11.6-2.5,23.2-6.3,32.1-14.1c10.1-8.7,15.8-21.9,16.6-35.2c0.8-12.7-3.7-27-15-32.7
			c-6.6-3.3-14.6-3.2-21.8-1.4c-4.6,1.2-9.1,3-13.9,3s-10-2.4-11.3-6.9c-1.4-4.8,1.9-9.7,5.6-13c7.7-6.6,18-9.9,24.9-17.3
			c11.2-11.8,10.6-30.5-1.2-41.7c-3-2.8-6.5-5-10.3-6.3c-23.5-8.3-49,14.4-73,7.7c-1.8-0.5-3.7-1.3-4.6-2.8
			c-0.8-1.6-0.9-3.6-0.2-5.2c2.9-9.7,14.4-15.8,14.8-25.9c0.3-5.5-3-10.6-7-14.3c-28.1-25.2-68.7,4.8-97.3,14.2
			C140.7,43.6,92.8,56.6,45.6,71.8z"/>
		<path class="st3" d="M148.9,145.9L148.9,145.9l8.5-5.1l0,0l-3.8-6.5l0,0l-8.5,5l0,0l-22.4-38l0,0l-8.9,5.3l0,0l-4.2,55.1l0,0
			l3.2,5.4l0,0l28.4-16.8l0,0l9.8,16.6l0,0l7.8-4.6l0,0L148.9,145.9z M117.2,155.8L117.2,155.8l-0.1-0.2l0,0l2.6-29.6l0,0l-0.2-12
			l0,0l0.3-0.2l0,0l5.4,9.7l0,0l12.1,20.4l0,0L117.2,155.8z"/>
		<path class="st3" d="M302.5,118.4L302.5,118.4l-8.8-5.4l0,0L243,135l0,0l-3.3,5.4l0,0l28.1,17.3l0,0l-10.1,16.4l0,0l7.7,4.7l0,0
			l10.1-16.5l0,0l8.5,5.2l0,0l3.9-6.4l0,0l-8.4-5.1l0,0L302.5,118.4z M271.6,151.2L271.6,151.2L251.8,139l0,0l0.1-0.2l0,0l27.4-11.5
			l0,0l10.5-5.8l0,0l0.3,0.2l0,0L284,131l0,0L271.6,151.2z"/>
		<circle class="st4" cx="199.1" cy="130.6" r="34.5"/>
		<path class="st5" d="M164.9,126.3c10.2,1.4,27.4-5.8,32.9-6.9c11.2-2.2,22.7,0.4,34.1,0.8c-0.8-2.5-1.8-4.8-3.2-7.1
			c-4.2,0.2-8.6-0.6-12.9-0.7c-8-0.2-16,1.9-24.1,1.4c-3.7-0.2-12.1-3.5-19.7-4.8C168.2,114,165.7,120,164.9,126.3z"/>
		<path class="st5" d="M199.1,96.1c-3.4,0-6.8,0.5-10.1,1.5c4.3,2.5,13,3.3,15,3.6c3.6,0.5,7.5,0.7,10.6-1.3l0.1-0.1
			C209.9,97.4,204.5,96.1,199.1,96.1z"/>
		<path class="st5" d="M233.5,131.1c-10-2.5-20.4-2.7-30.4-0.5c-5.4,1.2-10.7,3-16.1,4.4c-6.8,1.7-13.8,2.5-20.8,2.4h-0.9
			c1.3,6.8,4.7,13,9.6,17.8c8.3-2.9,16.2-6.8,23.6-11.4c6.5-4.1,13-8.9,20.6-9.6c4.7-0.4,9.4,0.8,14.1,1.8
			C233.4,134.3,233.5,132.7,233.5,131.1z"/>
		<path class="st5" d="M231.7,141.7c-4.7-0.7-13,3.4-15.1,5.2c-1.8,1.5-3.4,3.4-5.3,4.8c-2.5,1.7-5.5,2.5-8.5,3.2
			c-5.9,1.5-11.8,3.2-17.7,5.1c-0.8,0.2-1.4,0.6-1.9,1.2c8.4,4.4,18.3,5.1,27.2,1.9c3.6-5.1,5.7-11.7,11.4-14.1
			c1-0.4,4.3-0.9,7.4-1.7C230.2,145.5,231,143.6,231.7,141.7z"/>
		<path class="st3" d="M302,233.1c-10.1-53.6-61.7-88.9-115.3-78.8c-40,7.5-71.3,38.8-78.8,78.8H302z"/>
		<path class="st6" d="M223,209.2c-0.4,3.5-5.8,5.6-12,4.8s-10.8-4.3-10.3-7.7s5.8-5.6,12-4.8S223.5,205.7,223,209.2z"/>
		<circle class="st7" cx="132.9" cy="71.8" r="12.8"/>
		<path class="st8" d="M132.9,59.1c-2.2,0-4.3,0.6-6.2,1.6c0.1,0.1,0.2,0.3,0.3,0.4c1.3,1.3,4.4,1.4,6.1,1.4c2.5,0.1,5-0.2,7.4-1
			C138.3,60,135.6,59.1,132.9,59.1z"/>
		<path class="st8" d="M142.7,65.9c0.4-0.1,0.8-0.3,1.2-0.5c-0.3-0.6-0.7-1.1-1.1-1.6l-3.8,1.7c-1,0.5-2,0.9-3,1.2
			c-1.6,0.4-3.2,0.5-4.8,0.4c-3.3-0.1-6.5-0.3-9.8-0.7c-1.2,2.5-1.6,5.4-1,8.2c0.7-0.3,1.3-0.7,1.9-1.1c1.7-1,3.4-1.7,5.3-2.3
			L142.7,65.9z"/>
		<path class="st8" d="M144.6,66.8c-1,0.9-1.7,2-2.8,2.9c-1.1,0.9-2.4,1.6-3.7,2.1c-0.9,0.4-1.9,0.6-2.8,1.1
			c-0.4,0.1-0.6,0.4-0.8,0.8c-0.1,0.7,0.6,1.1,1.3,1.3c1.3,0.2,2.7,0.3,4,0.2l4.7-0.2c0.3,0,0.6,0,0.9-0.1c0.3-1,0.4-2,0.4-3.1
			C145.7,70.1,145.3,68.4,144.6,66.8z"/>
		<path class="st8" d="M133.2,71.5c-2.3,0.5-4.5,1.2-6.6,2.1c-1.4,0.7-2.8,1.3-4.2,1.9c-0.5,0.1-1.1,0.2-1.7,0.2
			c0.7,2.3,2.1,4.4,4,6l0.4-0.5c1.9-2.5,3.2-5.7,6-7.3c0.5-0.2,1-0.5,1.5-0.9C133.1,72.7,133.3,72.1,133.2,71.5z"/>
		<path class="st8" d="M144.4,77.3c-0.1,0-0.3,0-0.4,0l-8.2,0.5c-1.7-0.1-3.4,0.3-4.8,1.2c-1,0.8-1.9,1.8-2.5,3
			c-0.2,0.4-0.7,0.9-1,1.4c1.6,0.8,3.4,1.2,5.2,1.2c0.3-0.4,0.6-0.9,0.9-1.3c1.8-2.4,4.6-3.9,7.6-4.3c0.8-0.1,1.6-0.1,2.4-0.2
			C143.9,78.3,144.2,77.8,144.4,77.3z"/>
		<path class="st8" d="M144.6,76.9c0.3-0.8,0.6-1.6,0.8-2.4c-3.7,1.3-7.5,2.3-11.3,3c-3.9,0.8-7.8,1.3-11.7,1.5
			c0.5,0.7,1,1.3,1.6,1.9c3.5-0.2,7-0.7,10.5-1.4C137.9,78.9,141.3,78,144.6,76.9z"/>
		<path class="st3" d="M120.4,80c-4.6,0-8.3-0.7-8.7-2.9s2.3-4.2,8-6.4c0.5-0.2,1.1,0.1,1.3,0.6l0,0c0.2,0.5-0.1,1.1-0.6,1.3l0,0
			c-5.8,2.2-6.8,3.8-6.8,4.1c0.2,1.1,7.4,2.4,20.4-0.2c4.9-0.9,9.6-2.3,14.2-4.1c4.2-1.8,4.9-3.1,4.9-3.3s-1.7-1.5-8.2-1.3
			c-0.6,0-1-0.4-1-1c0-0.6,0.4-1,1-1c6.4-0.2,9.9,0.8,10.3,2.9c0.4,1.8-1.6,3.6-6,5.6c-4.7,1.9-9.6,3.4-14.6,4.3
			C129.8,79.4,125.1,79.9,120.4,80z"/>
		
			<ellipse transform="matrix(0.982 -0.1891 0.1891 0.982 -12.1209 64.1652)" class="st9" cx="330.2" cy="95.6" rx="10.3" ry="10.3"/>
		<path class="st10" d="M335.1,86.6c-1.5-0.8-3.3-1.3-5-1.2c0,0.1,0,0.3,0.1,0.4c0.4,1.4,2.6,2.6,3.8,3.3c1.7,1.1,3.6,1.8,5.6,2.2
			C338.6,89.3,337.1,87.6,335.1,86.6z"/>
		<path class="st10" d="M339.4,95.1c0.4,0.1,0.7,0.1,1.1,0.1c0-0.5-0.1-1-0.2-1.6l-3.3-0.2c-0.9,0-1.7-0.2-2.6-0.3
			c-1.2-0.3-2.4-0.9-3.5-1.5c-2.3-1.3-4.5-2.8-6.7-4.2c-1.8,1.3-3.2,3.2-3.8,5.4c0.6,0,1.2,0,1.8-0.1c1.6,0,3.1,0.1,4.6,0.4
			L339.4,95.1z"/>
		<path class="st10" d="M340.5,96.5c-1,0.2-2,0.8-3.1,1s-2.3,0.2-3.5,0.1c-0.8-0.1-1.6-0.3-2.4-0.3c-0.3-0.1-0.6,0-0.8,0.2
			c-0.4,0.4,0,1,0.4,1.4c0.8,0.7,1.7,1.2,2.7,1.7l3.4,1.7l0.6,0.3c0.6-0.6,1-1.3,1.5-2C339.9,99.3,340.3,97.9,340.5,96.5z"/>
		<path class="st10" d="M330.6,95.5c-1.8-0.5-3.6-0.9-5.5-1c-1.2,0-2.5-0.1-3.7-0.3c-0.4-0.1-0.9-0.3-1.3-0.5
			c-0.4,1.9-0.2,4,0.6,5.8l0.5-0.2c2.3-1.1,4.5-2.8,7-2.9c0.5,0,0.9,0,1.4-0.1C330,96.3,330.4,95.9,330.6,95.5z"/>
		<path class="st10" d="M336.3,103.9l-0.3-0.2l-6-2.8c-2.1-1.5-4.8-1.4-6.8,0.1c-0.3,0.2-0.8,0.4-1.3,0.6c0.9,1.2,1.9,2.1,3.2,2.9
			c0.4-0.2,0.8-0.4,1.2-0.6c2.3-1,4.8-1,7.1-0.1c0.6,0.2,1.2,0.6,1.8,0.8C335.5,104.4,335.9,104.1,336.3,103.9z"/>
		<path class="st3" d="M111,209.2l9.4-17.8c1-1.9,3.4-2.7,5.3-1.6l0,0l3.6,1.9l0,0l-13.1,24.8l0,0l-3.6-1.9
			C110.7,213.4,110,211.1,111,209.2z"/>
		<path class="st3" d="M294,197l4.9,12.2c0.8,2-0.2,4.3-2.2,5.1l0,0l-3.8,1.5l0,0l-7.8-19.5l0,0l3.8-1.5
			C290.9,194,293.2,195,294,197L294,197L294,197z"/>
		<path class="st3" d="M147.7,168.7L164,157c1.8-1.3,4.2-0.9,5.5,0.9l0,0l2.4,3.3l0,0l-22.7,16.3l0,0l-2.4-3.3
			C145.5,172.4,145.9,170,147.7,168.7L147.7,168.7L147.7,168.7z"/>
		<path class="st3" d="M260.6,167.3l16.1,12.1c1.7,1.3,2.1,3.8,0.8,5.5l0,0l-2.4,3.2l0,0l-22.3-16.9l0,0l2.4-3.2
			C256.4,166.4,258.8,166,260.6,167.3z"/>
		
			<ellipse transform="matrix(0.8917 -0.4527 0.4527 0.8917 -66.5926 91.9945)" class="st6" cx="158.9" cy="185.1" rx="15.8" ry="7"/>
		<path class="st11" d="M156.8,181.9c7-3.6,13.9-4.2,16.5-1.8c0.1-0.7,0-1.4-0.3-2.1c-1.8-3.4-9.4-3.1-17.2,0.9s-12.6,9.9-10.9,13.4
			c0.2,0.3,0.4,0.6,0.7,0.9C146,189.7,150.4,185.1,156.8,181.9z"/>
		<path class="st6" d="M267.9,189.8c-1.4,2.2-6.5,1.5-11.5-1.6s-7.9-7.4-6.5-9.6s6.5-1.5,11.5,1.6S269.2,187.6,267.9,189.8z"/>
		<path class="st11" d="M260,181.9c4.5,2.8,7.3,6.6,6.8,8.9c0.5-0.2,0.8-0.5,1.1-0.9c1.4-2.2-1.5-6.5-6.5-9.6s-10.1-3.8-11.4-1.6
			c-0.1,0.2-0.2,0.5-0.3,0.7C251.8,178.4,256,179.3,260,181.9z"/>
		<path class="st11" d="M212.7,201.4c-6.2-0.8-11.5,1.3-12,4.8c0,0.2,0,0.5,0,0.8c1.3-2.8,6.2-4.4,11.6-3.7c5.7,0.8,10.1,3.8,10.3,7
			c0.2-0.4,0.3-0.7,0.3-1.1C223.5,205.7,218.9,202.2,212.7,201.4z"/>
		<circle class="st6" cx="59.7" cy="116" r="3.2"/>
		<path class="st6" d="M248.6,27c-0.8,0-1.5-0.6-1.5-1.4s0.6-1.5,1.4-1.5c0.8,0,1.5,0.6,1.5,1.4l0,0C250,26.4,249.4,27,248.6,27z"/>
		<circle class="st6" cx="269.2" cy="52.6" r="1.5"/>
		<circle class="st6" cx="25.7" cy="100.1" r="1.5"/>
		<path class="st3" d="M234.2,78.2c0,1-0.8,1.9-1.9,1.9c-1,0-1.9-0.8-1.9-1.9c0-1,0.8-1.9,1.9-1.9l0,0
			C233.4,76.3,234.2,77.2,234.2,78.2L234.2,78.2z"/>
		<path class="st3" d="M313.1,164.5c0,1-0.8,1.9-1.9,1.9c-1,0-1.9-0.8-1.9-1.9c0-1,0.8-1.9,1.9-1.9S313.1,163.4,313.1,164.5
			L313.1,164.5z"/>
		<path class="st3" d="M368.4,167.6c0,1-0.8,1.9-1.9,1.9c-1,0-1.9-0.8-1.9-1.9c0-1,0.8-1.9,1.9-1.9l0,0
			C367.6,165.7,368.4,166.6,368.4,167.6z"/>
		<path class="st3" d="M73.1,195c0,1-0.8,1.9-1.9,1.9c-1,0-1.9-0.8-1.9-1.9c0-1,0.8-1.9,1.9-1.9S73.1,194,73.1,195L73.1,195z"/>
		<path class="st3" d="M181.4,59.1c0,1-0.8,1.9-1.9,1.9c-1,0-1.9-0.8-1.9-1.9c0-1,0.8-1.9,1.9-1.9l0,0
			C180.6,57.2,181.4,58.1,181.4,59.1z"/>
		<polygon class="st3" points="158.7,104.7 161.2,106.1 158.6,107.5 157.2,110 155.9,107.4 153.4,106 155.9,104.7 157.4,102.2 		"/>
		<polygon class="st3" points="276.6,78.4 278.2,79.3 276.5,80.2 275.6,81.8 274.7,80.2 273.1,79.2 274.8,78.3 275.7,76.7 		"/>
		<polygon class="st3" points="83.7,156.8 85.4,157.7 83.7,158.6 82.8,160.2 81.9,158.6 80.2,157.6 81.9,156.8 82.8,155.1 		"/>
		<polygon class="st3" points="84.7,90.2 86.3,91.1 84.6,92 83.7,93.6 82.8,91.9 81.2,91 82.8,90.1 83.8,88.5 		"/>
		<polygon class="st3" points="34.7,189.6 36.3,190.5 34.7,191.4 33.7,193 32.8,191.4 31.2,190.4 32.9,189.6 33.8,187.9 		"/>
		<polygon class="st3" points="331.5,143.5 333.2,144.4 331.5,145.3 330.6,146.9 329.7,145.3 328.1,144.3 329.7,143.5 330.7,141.8 
					"/>
		<polygon class="st3" points="351.7,209.3 353.3,210.2 351.6,211.1 350.7,212.7 349.9,211 348.2,210.1 349.9,209.2 350.8,207.6 		
			"/>
	</g>
</g>
</svg>
