<svg xmlns="http://www.w3.org/2000/svg" viewBox="0 0 279.66 427.44"><defs><style>.cls-1{font-size:15.05px;}.cls-1,.cls-10,.cls-9{fill:#fff;}.cls-1,.cls-9{font-family:AmericanTypewriter, American Typewriter;}.cls-2{letter-spacing:0.01em;}.cls-3{letter-spacing:0.02em;}.cls-4{letter-spacing:-0.07em;}.cls-5{letter-spacing:0em;}.cls-6{letter-spacing:-0.02em;}.cls-7{letter-spacing:-0.02em;}.cls-8{letter-spacing:0em;}.cls-9{font-size:95.61px;}.cls-11{fill:#dbeccc;}.cls-12{fill:#fffaef;}.cls-13{fill:#3c2a34;}.cls-14{fill:#ee4623;}.cls-15{fill:#98d5cc;}.cls-16{fill:#fffdf2;}</style></defs><title>Asset 10</title><g id="Layer_2" data-name="Layer 2"><g id="OBJECT"><text class="cls-1" transform="translate(47.69 419.95)">So<tspan class="cls-2" x="17.53" y="0">r</tspan><tspan class="cls-3" x="25.13" y="0">r</tspan><tspan class="cls-4" x="32.9" y="0">y</tspan><tspan class="cls-5" x="40.82" y="0">, the pa</tspan><tspan class="cls-6" x="93.52" y="0">g</tspan><tspan class="cls-5" x="101.47" y="0">e not </tspan><tspan class="cls-7" x="140.76" y="0">f</tspan><tspan class="cls-8" x="145.62" y="0">ound</tspan></text><text class="cls-9" transform="translate(36.2 392.54)">4</text><text class="cls-9" transform="translate(183.6 390.54)">4</text><path class="cls-10" d="M177.54,359.92a37.72,37.72,0,1,1-37.71-37.71A37.71,37.71,0,0,1,177.54,359.92Z"/><path class="cls-11" d="M107.7,379.68c.3.49.62,1,1,1.47,6.86-6.42,31.8-31,41.87-57.4-.55-.17-1.11-.32-1.68-.46l-.36.95.4-.12.49,1.66-1.73.5c-1.09,2.52-2.29,5-3.6,7.5l.26-.12.77,1.55a16.85,16.85,0,0,1-2.28.87c-1.61,2.89-3.35,5.71-5.16,8.46l.38-.08.36,1.69s-.78.16-2.07.36c-2.35,3.45-4.81,6.76-7.26,9.86l.66.35-.79,1.53-1-.5c-1.72,2.13-3.42,4.16-5.08,6.07l.63.34-.81,1.53-1-.53c-1.81,2-3.55,3.94-5.17,5.65.34.15.53.21.54.22l-.58,1.63c-.08,0-.51-.19-1.23-.5C112.05,375.51,109.38,378.09,107.7,379.68Z"/><path class="cls-11" d="M131,372c9.23-9.95,21.26-25.43,28.27-44.4-.5-.3-1-.59-1.52-.87-11.13,30.39-35.61,52.36-44.71,59.75.41.41.83.82,1.26,1.21A164.75,164.75,0,0,0,131,372Z"/><path class="cls-11" d="M152.33,359.83s0,.11,0,.29c.68-1,1.37-2,2-3-.45-.43-.7-.69-.76-.75l1.28-1.17.45.45c.77-1.17,1.52-2.37,2.27-3.6l-.75-.54,1-1.39.62.45q1.71-2.88,3.33-5.95c-.51-.48-.79-.77-.84-.83l1.25-1.19.42.42c1.51-3,2.95-6.05,4.29-9.27-.43-.45-.88-.89-1.33-1.31a141.11,141.11,0,0,1-29.85,44.77,139.52,139.52,0,0,1-16.47,14.37c.52.33,1.05.66,1.58,1a140.5,140.5,0,0,0,14.29-12.3c0-.69,0-1.39,0-2.09H137v.36l.06-.06c2.18-2.22,4.53-4.75,7-7.58,0-.7-.09-1.4-.14-2.12l1.73-.12c0,.11,0,.22,0,.33,1.73-2.1,3.5-4.34,5.26-6.74-.13-1.39-.22-2.19-.22-2.23Z"/><path class="cls-11" d="M129.7,356.72l-.66-.35a186.79,186.79,0,0,1-16.11-9.67c-1-.16-2-.33-3.05-.55l.29-1.37q-1.83-1.3-3.59-2.68c-.28.53-.55,1-.8,1.59A166.22,166.22,0,0,0,128,357.75l1,.5Z"/><path class="cls-11" d="M123.5,364.16l-.63-.34a187.73,187.73,0,0,1-19.67-12.93c-.14.61-.28,1.23-.4,1.85a188.75,188.75,0,0,0,18.91,12.42l1,.53Z"/><path class="cls-11" d="M117.08,371s-.2-.07-.54-.22a71.06,71.06,0,0,1-14.36-8.66c0,.78.11,1.55.21,2.32a71.36,71.36,0,0,0,12.88,7.69c.72.31,1.15.47,1.23.5Z"/><path class="cls-11" d="M148.88,324.12l-.4.12a140.88,140.88,0,0,1-30.76,5.13q-1.2.87-2.34,1.83a143.45,143.45,0,0,0,32.26-4.92l1.73-.5Z"/><path class="cls-11" d="M144.3,333.66l-.26.12c-1.66.69-11.49,4.29-34.43,3.57-.41.55-.81,1.12-1.2,1.7,2.63.1,5.1.14,7.4.14,15,0,23.32-1.93,27-3.11a16.85,16.85,0,0,0,2.28-.87Z"/><path class="cls-11" d="M112.93,346.7a70.37,70.37,0,0,0,10.65.77,85.44,85.44,0,0,0,12.72-1c1.29-.2,2-.35,2.07-.36l-.36-1.69-.38.08c-2.32.43-14.88,2.54-27.39-.08l-.07.32-.29,1.37C110.9,346.37,111.92,346.54,112.93,346.7Z"/><path class="cls-11" d="M151.91,385.63c0,3.34-.08,6.76-.28,10.12q.9-.3,1.77-.63c.16-3.07.24-6.17.24-9.2-.57.42-.94.67-1,.73Z"/><path class="cls-11" d="M153.36,374.12l-.37.28-1-1.4s.49-.36,1.28-1c-.33-6.16-.77-10.69-.89-11.86,0-.18,0-.28,0-.29l-1.72.19s.09.84.22,2.23c.36,4,1,12.95,1.08,22.78.33-.23.93-.67,1.72-1.27C153.6,380.36,153.5,377.09,153.36,374.12Z"/><path class="cls-11" d="M143.82,368.78c.05.72.1,1.42.14,2.12a239.48,239.48,0,0,1,.27,26.48q.89-.11,1.74-.24a245.09,245.09,0,0,0-.4-28.15c0-.11,0-.22,0-.33Z"/><path class="cls-11" d="M135.22,378.18c0,.7,0,1.4,0,2.09-.05,7.06-.36,13.15-.62,17,.57.07,1.15.14,1.72.19.28-4.19.63-11.05.63-18.93v-.36Z"/><path class="cls-11" d="M162.29,342.62,161,343.81c.05.06.33.35.84.83a68.94,68.94,0,0,0,15.36,10.49c-.09-.72-.2-1.44-.33-2.14a66.66,66.66,0,0,1-14.2-9.95Z"/><path class="cls-11" d="M156.9,351.53l.75.54a171.73,171.73,0,0,0,19.66,12.09c.06-.62.12-1.24.16-1.87a171,171,0,0,1-18.92-11.7l-.62-.45Z"/><path class="cls-11" d="M154.93,355.22l-1.28,1.17c.06.06.31.32.76.75a57.66,57.66,0,0,0,7.51,5.93l.58-.74,1.36,1.06c-.16.22-.33.43-.5.64,1.79,1.17,3.85,2.43,6.2,3.73L170,367l1.5.86c-.14.25-.29.49-.44.74,1.49.79,3.09,1.61,4.8,2.43.18-.56.34-1.13.48-1.7-12.79-6.2-19.29-12-21-13.65Z"/><path class="cls-11" d="M163.36,364c.17-.21.34-.42.5-.64l-1.36-1.06-.58.74a62.85,62.85,0,0,1-8.67,8.91c-.79.66-1.26,1-1.28,1l1,1.4.37-.28A61.65,61.65,0,0,0,163.36,364Z"/><path class="cls-11" d="M171.08,368.59c.15-.25.3-.49.44-.74L170,367l-.46.77c-4.09,6.58-12.18,13.15-15.93,16-.79.6-1.39,1-1.72,1.27l-.28.2.28.4.71,1c.08-.06.45-.31,1-.73C156.79,383.6,166.37,376.23,171.08,368.59Z"/><path class="cls-12" d="M118.49,289.68s6,71.22,7.14,77.32-35.11-29.56-52.48-66.19C73.15,300.81,81.75,288.17,118.49,289.68Z"/><path class="cls-12" d="M165.55,293.68s-5,71.3-6.07,77.42,37.19-37.06,54.05-73.93C213.53,297.17,202.27,291.66,165.55,293.68Z"/><path class="cls-12" d="M44.91,304.39H0s18.1-15.17,39.74-19c0,0-60.13-157.27,86.63-171.26C293,98.26,237.52,285.41,237.52,285.41s19.68,2,42.14,18.57Z"/><path class="cls-13" d="M141.6,113.11S116.71,229.05,174,239.18,238,282.61,238,282.61,290,109.76,141.6,113.11Z"/><path class="cls-13" d="M61,137.37S74.29,167.2,64,189.43,28.77,217.9,29.9,246.32C29.9,246.32,10.19,175.21,61,137.37Z"/><path class="cls-13" d="M145.88,129s29.61-9.92,26.64-32.86C167.81,59.8,62.21,82.29,62.75,66.72s7.91-45.46,54.05-53.63c0,0-54.73-34.58-78.86,8.67S35.71,84,43.2,89.79c0,0-10-5.15-17.15-18.46,0,0-6.29,27.68,20.84,35.26,20.72,5.79,96.67-5.76,101.91,0s-4.49,18.35-4.49,18.35Z"/><path class="cls-13" d="M114.93,183.56l-13.55-55.24S65,148.69,82.59,201.67Z"/><path class="cls-14" d="M106.34,178.76,90.39,138S70.28,153.11,80,192.49C80,192.49,102.53,180.47,106.34,178.76Z"/><path class="cls-13" d="M173.27,184.65,185,129S222,148.14,206.2,201.67Z"/><path class="cls-14" d="M181.7,179.56l14.59-41.22s20.61,14.39,12.21,54.07C208.5,192.41,185.57,181.15,181.7,179.56Z"/><path class="cls-12" d="M100.61,174.74s-6.46-19.07-11-18.58,2.2,18.11,2.2,18.11-4.2-6.65-6.37-5.14c-4.3,3,4.62,13.79,4.62,13.79s-5-11.63-3.34-11.16,7,5.34,7,5.34-5.53-13.78-1.43-13.3S100.61,174.74,100.61,174.74Z"/><path class="cls-12" d="M188,176.79s5.82-19.27,10.36-18.93S196.74,176,196.74,176s4-6.79,6.2-5.36c4.39,2.84-4.16,13.94-4.16,13.94s4.61-11.8,3-11.26-6.77,5.56-6.77,5.56S200,165,196,165.58,188,176.79,188,176.79Z"/><path class="cls-12" d="M63.86,283.71S52.14,166.51,138.7,167.34c92.35.88,104.24,135.18,32.37,144.72C87.58,323.15,63.86,283.71,63.86,283.71Z"/><path class="cls-13" d="M218.34,239.18s19.63,11,19,13.47S207.57,299.53,195,302s-48.21-60.16-48.21-60.16S212.92,258.12,218.34,239.18Z"/><path class="cls-13" d="M61.32,239.18s-19.63,11-19,13.47S72.09,299.53,84.63,302,132,241.83,132,241.83,66.73,258.12,61.32,239.18Z"/><path class="cls-13" d="M132,166.86v75S109.57,266,70.36,279.15C70.36,279.15,23.54,183,132,166.86Z"/><path class="cls-13" d="M148.33,166.86l-1.52,75s22.4,24.18,61.61,37.32C208.42,279.15,259.28,173.24,148.33,166.86Z"/><path class="cls-15" d="M128.12,229.39A24.36,24.36,0,1,1,103.35,205,24.61,24.61,0,0,1,128.12,229.39Z"/><path class="cls-13" d="M123.66,235.77c.18,10.69-8.59,19.51-19.58,19.69a19.64,19.64,0,0,1-20.22-19c-.18-10.69,8.59-19.5,19.58-19.69S123.49,225.08,123.66,235.77Z"/><path class="cls-16" d="M119.81,217.11a3.95,3.95,0,1,1-4-4.18A4.1,4.1,0,0,1,119.81,217.11Z"/><path class="cls-15" d="M200.21,229.39A24.36,24.36,0,1,1,175.44,205,24.59,24.59,0,0,1,200.21,229.39Z"/><path class="cls-13" d="M195.76,235.77a19.92,19.92,0,0,1-39.81.66c-.18-10.69,8.59-19.5,19.58-19.69S195.58,225.08,195.76,235.77Z"/><path class="cls-16" d="M191.9,217.11a3.95,3.95,0,1,1-4-4.18A4.1,4.1,0,0,1,191.9,217.11Z"/><path class="cls-12" d="M218.66,234.25S203,258,157.48,264.09C157.48,264.09,201.2,262.35,218.66,234.25Z"/><path class="cls-12" d="M228.08,242.89s-23.69,24.06-70,22.42C158.1,265.31,207.15,268.52,228.08,242.89Z"/><path class="cls-12" d="M224,259s-23.09,19-66,7.57C158,266.61,199.85,281.64,224,259Z"/><path class="cls-12" d="M61.26,234.25S77,258,122.45,264.09C122.45,264.09,78.72,262.35,61.26,234.25Z"/><path class="cls-12" d="M51.85,242.89s23.69,24.06,70,22.42C121.82,265.31,72.78,268.52,51.85,242.89Z"/><path class="cls-12" d="M55.91,259s23.08,19,66,7.57C121.92,266.61,80.07,281.64,55.91,259Z"/><path class="cls-13" d="M127.89,260.92s1.74,15.6,13.26,14.64,12.6-15.86,12.6-15.86,3.07,18.77-12.93,18.1C127.53,277.25,126.05,267.51,127.89,260.92Z"/><polygon class="cls-13" points="141.36 255.86 142.46 275.3 139.33 276.02 139.33 256.16 141.36 255.86"/><path class="cls-14" d="M123.85,257.28s16.6-23.57,31.22.66c0,0-5.45-9-15-8.54C131.05,249.85,123.85,257.28,123.85,257.28Z"/><path class="cls-12" d="M108.82,192.41s-10.43-14.4-19,3.35C89.79,195.76,99.7,186.56,108.82,192.41Z"/><path class="cls-12" d="M192.29,196.73S191.54,179,174.57,189C174.57,189,187.92,186.81,192.29,196.73Z"/><path class="cls-14" d="M130.42,250.69s12.2-4.75,20.17,1.34c0,0-7.91,7.55-9.23,7.81S130,252.64,130.42,250.69Z"/><path class="cls-12" d="M55.92,68.76s2.83,14.5,26.53,13C82.45,81.76,56.19,88.76,55.92,68.76Z"/><path class="cls-13" d="M31.39,287.46s11,8.57,13.52,16.93H0S17.3,290.65,31.39,287.46Z"/><path class="cls-13" d="M248.26,287.46s-10.94,8.57-13.52,16.93h44.92S270.35,293.23,248.26,287.46Z"/><path class="cls-13" d="M88.91,326.73s20-6.27,32.61-1.87L125.63,367S100.22,349.13,88.91,326.73Z"/><path class="cls-13" d="M194.55,330.06s-18.65-5.88-31.26-1.47l-3.84,44.07S183.24,352.46,194.55,330.06Z"/><path class="cls-11" d="M85.33,302.06S140.05,329.22,195,302C195,302,136.17,321.44,85.33,302.06Z"/><path class="cls-12" d="M119.35,347.36s2.47,6.86,4.15,10.93C123.5,358.29,119.59,357.29,119.35,347.36Z"/><path class="cls-12" d="M115.66,349.66s2.48,6.86,4.16,10.93C119.82,360.59,115.9,359.6,115.66,349.66Z"/><path class="cls-12" d="M166,350.18s-2.47,6.86-4.15,10.93C161.81,361.11,165.72,360.11,166,350.18Z"/><path class="cls-12" d="M169.65,352.48s-2.48,6.86-4.16,10.94C165.49,363.42,169.41,362.42,169.65,352.48Z"/><path class="cls-12" d="M257.2,298.64s6.63,3,10.55,5C267.75,303.67,267.08,299.69,257.2,298.64Z"/><path class="cls-12" d="M259.8,295.15s6.63,3,10.55,5C270.35,300.19,269.68,296.2,259.8,295.15Z"/><path class="cls-12" d="M23.54,298.64s-6.63,3-10.55,5C13,303.67,13.66,299.69,23.54,298.64Z"/><path class="cls-12" d="M20.94,295.15s-6.63,3-10.55,5C10.39,300.19,11.06,296.2,20.94,295.15Z"/></g></g></svg>