<svg xmlns="http://www.w3.org/2000/svg" viewBox="0 0 261.87 169.88"><defs><style>.cls-1{fill:#fff;}</style></defs><title>Asset 2</title><g id="Layer_2" data-name="Layer 2"><g id="Objects"><path class="cls-1" d="M176.94,0l-23,23-23-23L120.68,10.26l74,74.68-40.72,40.72-12.4-12.39,28.33-28.33L84.94,0,0,84.94l84.94,84.94,23-23,23,23,10.53-10.54L67.21,84.94l40.73-40.73,12.39,12.4L92,84.94l84.94,84.94,84.93-84.94ZM46,84.94l51.33,51.33L84.94,148.66,21.21,84.94,84.94,21.21l12.39,12.4Zm67.21,0,17.73-17.73,17.72,17.73-17.72,17.72Zm51.33,51.33,51.33-51.33L164.54,33.61l12.4-12.4,63.72,63.73-63.72,63.72Z"/></g></g></svg>